# xmcd CD database file
#
# Track frame offsets:
#	150
#	11247
#	28582
#	41040
#	65207
#	90737
#	125770
#	149087
#	178925
#	192202
#	208552
#	231960
#	256577
#	268695
#	283982
#	306247
#	322207
#
# Disc length: 4612 seconds
#
# Revision: 0
# Processed by: cddbd v1.5.2PL0 Copyright (c) Steve Scherf et al.
# Submitted via: CDex 1.50beta10
#
DISCID=15120211
DTITLE=UNIVERSAL - THE JAZZ MASTER
DYEAR=2003
DGENRE=Jazz
TTITLE0=I LOVE JAZZ
TTITLE1=APRIL IN PARIS
TTITLE2=UNFORGATTABLE
TTITLE3=EVERY NIGHT
TTITLE4=LOVE FORE SALE
TTITLE5=JORDU
TTITLE6=BLUE MOON
TTITLE7=I'VE GROWN ACCUSTOMED TO HER FACE
TTITLE8=DOWNSTAIRS
TTITLE9=OH,YOU CARZY MOON
TTITLE10=LOVE THEME FROM SPARTACUS
TTITLE11=O GRANDE AMOR
TTITLE12=MAS QUE NADA
TTITLE13=TEQUILA
TTITLE14=CAPTAIN MARVEL
TTITLE15=GOOD MORING HEARTACHE
TTITLE16=STOMPING AT THE SAVOY
EXTD=YEAR: 2003
EXTT0=
EXTT1=
EXTT2=
EXTT3=
EXTT4=
EXTT5=
EXTT6=
EXTT7=
EXTT8=
EXTT9=
EXTT10=
EXTT11=
EXTT12=
EXTT13=
EXTT14=
EXTT15=
EXTT16=
PLAYORDER=
